<svg xmlns="http://www.w3.org/2000/svg" xmlns:xlink="http://www.w3.org/1999/xlink" width="1080" zoomAndPan="magnify" viewBox="0 0 810 809.999993" height="1080" preserveAspectRatio="xMidYMid meet" version="1.0"><defs><clipPath id="0203fcda5d"><path d="M 70 74 L 741.425781 74 L 741.425781 748.175781 L 70 748.175781 Z M 70 74 " clip-rule="nonzero"/></clipPath><clipPath id="c7a976de23"><path d="M 630.230469 444.71875 C 632.09375 444.730469 633.953125 444.695312 635.8125 444.613281 C 637.671875 444.53125 639.527344 444.40625 641.378906 444.234375 C 643.234375 444.058594 645.082031 443.84375 646.921875 443.578125 C 648.765625 443.316406 650.601562 443.007812 652.429688 442.65625 C 654.253906 442.304688 656.074219 441.90625 657.878906 441.464844 C 659.6875 441.019531 661.484375 440.535156 663.269531 440.003906 C 665.050781 439.472656 666.820312 438.898438 668.578125 438.28125 C 670.332031 437.664062 672.070312 437.003906 673.796875 436.304688 C 675.519531 435.601562 677.222656 434.855469 678.910156 434.070312 C 680.597656 433.28125 682.261719 432.457031 683.910156 431.585938 C 685.554688 430.71875 687.179688 429.8125 688.78125 428.863281 C 690.382812 427.914062 691.960938 426.929688 693.511719 425.902344 C 695.066406 424.878906 696.59375 423.816406 698.09375 422.714844 C 699.59375 421.613281 701.066406 420.476562 702.511719 419.304688 C 703.957031 418.132812 705.375 416.925781 706.757812 415.683594 C 708.144531 414.441406 709.5 413.164062 710.824219 411.855469 C 712.144531 410.546875 713.4375 409.207031 714.691406 407.835938 C 715.949219 406.464844 717.171875 405.0625 718.363281 403.628906 C 719.550781 402.199219 720.703125 400.738281 721.820312 399.25 C 722.9375 397.761719 724.015625 396.246094 725.058594 394.703125 C 726.101562 393.160156 727.105469 391.59375 728.070312 390.003906 C 729.035156 388.414062 729.960938 386.800781 730.847656 385.164062 C 731.734375 383.527344 732.582031 381.871094 733.386719 380.191406 C 734.191406 378.515625 734.953125 376.816406 735.675781 375.101562 C 736.398438 373.386719 737.078125 371.652344 737.714844 369.90625 C 738.347656 368.15625 738.941406 366.394531 739.492188 364.617188 C 740.042969 362.835938 740.550781 361.046875 741.011719 359.246094 C 741.472656 357.441406 741.890625 355.628906 742.265625 353.804688 C 742.636719 351.984375 742.964844 350.152344 743.25 348.3125 C 743.53125 346.472656 743.769531 344.628906 743.960938 342.777344 C 744.15625 340.925781 744.300781 339.070312 744.402344 337.210938 C 744.503906 335.355469 744.5625 333.496094 744.570312 331.632812 C 744.582031 329.773438 744.546875 327.914062 744.464844 326.054688 C 744.382812 324.195312 744.257812 322.339844 744.085938 320.484375 C 743.914062 318.632812 743.695312 316.785156 743.433594 314.941406 C 743.167969 313.097656 742.863281 311.265625 742.507812 309.4375 C 742.15625 307.609375 741.757812 305.792969 741.316406 303.984375 C 740.875 302.175781 740.386719 300.382812 739.855469 298.597656 C 739.328125 296.8125 738.753906 295.042969 738.136719 293.289062 C 737.519531 291.53125 736.859375 289.792969 736.15625 288.070312 C 735.453125 286.347656 734.707031 284.640625 733.921875 282.957031 C 733.136719 281.269531 732.308594 279.601562 731.441406 277.957031 C 730.570312 276.308594 729.664062 274.6875 728.714844 273.085938 C 727.769531 271.484375 726.78125 269.90625 725.757812 268.351562 C 724.730469 266.800781 723.667969 265.273438 722.566406 263.773438 C 721.46875 262.269531 720.332031 260.796875 719.15625 259.351562 C 717.984375 257.90625 716.777344 256.492188 715.535156 255.105469 C 714.292969 253.722656 713.019531 252.367188 711.710938 251.042969 C 710.402344 249.71875 709.0625 248.429688 707.6875 247.171875 C 706.316406 245.914062 704.914062 244.691406 703.484375 243.503906 C 702.050781 242.316406 700.589844 241.164062 699.101562 240.046875 C 697.613281 238.929688 696.097656 237.847656 694.554688 236.808594 C 693.015625 235.765625 691.449219 234.761719 689.855469 233.792969 C 688.265625 232.828125 686.652344 231.902344 685.015625 231.015625 C 683.378906 230.128906 681.722656 229.285156 680.042969 228.480469 C 678.367188 227.675781 676.671875 226.910156 674.953125 226.191406 C 673.238281 225.46875 671.507812 224.789062 669.757812 224.152344 C 668.007812 223.515625 666.246094 222.921875 664.46875 222.371094 C 662.691406 221.824219 660.902344 221.316406 659.097656 220.855469 C 657.296875 220.390625 655.480469 219.976562 653.660156 219.601562 C 651.835938 219.226562 650.003906 218.898438 648.164062 218.617188 C 646.324219 218.332031 644.480469 218.097656 642.628906 217.902344 C 640.777344 217.710938 638.921875 217.5625 637.066406 217.460938 C 635.207031 217.359375 633.347656 217.304688 631.488281 217.292969 C 631.082031 215.546875 630.605469 213.816406 630.058594 212.109375 C 629.511719 210.402344 628.890625 208.71875 628.203125 207.0625 C 627.511719 205.40625 626.753906 203.78125 625.925781 202.1875 C 625.101562 200.597656 624.210938 199.042969 623.253906 197.523438 C 622.296875 196.007812 621.277344 194.53125 620.195312 193.097656 C 619.117188 191.667969 617.976562 190.28125 616.78125 188.945312 C 615.582031 187.609375 614.332031 186.324219 613.027344 185.09375 C 611.722656 183.863281 610.371094 182.6875 608.964844 181.570312 C 607.5625 180.453125 606.113281 179.394531 604.621094 178.398438 C 603.128906 177.402344 601.597656 176.46875 600.027344 175.601562 C 598.457031 174.734375 596.855469 173.933594 595.21875 173.203125 C 593.578125 172.46875 591.914062 171.804688 590.222656 171.210938 C 588.527344 170.617188 586.8125 170.097656 585.074219 169.648438 C 583.339844 169.199219 581.585938 168.824219 579.816406 168.523438 C 578.046875 168.21875 576.269531 167.992188 574.484375 167.839844 C 572.695312 167.6875 570.902344 167.609375 569.109375 167.609375 C 566.324219 167.609375 563.554688 167.789062 560.792969 168.144531 C 559.136719 166.117188 557.40625 164.160156 555.597656 162.269531 C 553.789062 160.378906 551.910156 158.558594 549.960938 156.816406 C 548.011719 155.070312 545.996094 153.40625 543.914062 151.820312 C 541.835938 150.234375 539.695312 148.730469 537.496094 147.3125 C 535.300781 145.890625 533.050781 144.558594 530.746094 143.316406 C 528.445312 142.074219 526.097656 140.921875 523.707031 139.863281 C 521.3125 138.800781 518.882812 137.835938 516.414062 136.96875 C 513.949219 136.097656 511.449219 135.324219 508.921875 134.652344 C 506.394531 133.976562 503.84375 133.402344 501.269531 132.925781 C 498.699219 132.449219 496.109375 132.078125 493.507812 131.804688 C 490.90625 131.53125 488.296875 131.359375 485.679688 131.292969 C 483.066406 131.222656 480.453125 131.257812 477.839844 131.394531 C 475.226562 131.527344 472.621094 131.765625 470.027344 132.105469 C 467.433594 132.445312 464.855469 132.886719 462.296875 133.425781 C 459.738281 133.964844 457.203125 134.605469 454.691406 135.34375 C 452.183594 136.085938 449.703125 136.921875 447.261719 137.855469 C 444.890625 134.65625 442.40625 131.550781 439.800781 128.542969 C 437.195312 125.53125 434.480469 122.625 431.65625 119.820312 C 428.832031 117.015625 425.90625 114.324219 422.878906 111.742188 C 419.847656 109.160156 416.726562 106.695312 413.511719 104.351562 C 410.296875 102.003906 406.996094 99.785156 403.613281 97.6875 C 400.226562 95.59375 396.769531 93.628906 393.238281 91.796875 C 389.703125 89.960938 386.105469 88.265625 382.445312 86.703125 C 378.785156 85.144531 375.070312 83.722656 371.300781 82.445312 C 367.53125 81.167969 363.71875 80.03125 359.863281 79.042969 C 356.007812 78.050781 352.121094 77.207031 348.203125 76.511719 C 344.285156 75.816406 340.34375 75.273438 336.386719 74.875 C 332.425781 74.476562 328.457031 74.230469 324.476562 74.136719 C 320.496094 74.039062 316.519531 74.09375 312.546875 74.300781 C 308.570312 74.507812 304.609375 74.863281 300.664062 75.367188 C 296.714844 75.875 292.792969 76.527344 288.894531 77.332031 C 284.996094 78.132812 281.132812 79.082031 277.304688 80.179688 C 273.480469 81.277344 269.703125 82.515625 265.96875 83.898438 C 262.238281 85.28125 258.5625 86.800781 254.945312 88.460938 C 251.328125 90.125 247.78125 91.917969 244.296875 93.847656 C 240.816406 95.777344 237.414062 97.839844 234.089844 100.027344 C 230.765625 102.214844 227.527344 104.523438 224.378906 106.957031 C 221.230469 109.390625 218.175781 111.941406 215.21875 114.605469 C 212.261719 117.269531 209.410156 120.042969 206.664062 122.921875 C 203.917969 125.804688 201.285156 128.785156 198.765625 131.863281 C 196.246094 134.945312 193.847656 138.117188 191.566406 141.378906 C 189.285156 144.640625 187.132812 147.984375 185.105469 151.410156 C 183.082031 154.835938 181.1875 158.335938 179.425781 161.902344 C 177.664062 165.472656 176.039062 169.101562 174.554688 172.796875 C 173.066406 176.488281 171.722656 180.230469 170.523438 184.023438 C 169.320312 187.820312 168.261719 191.652344 167.351562 195.527344 C 166.4375 199.402344 165.675781 203.304688 165.058594 207.238281 C 164.445312 211.167969 163.976562 215.121094 163.660156 219.085938 C 161.933594 219.398438 160.214844 219.746094 158.503906 220.136719 C 156.792969 220.527344 155.089844 220.957031 153.398438 221.425781 C 151.707031 221.894531 150.027344 222.402344 148.359375 222.949219 C 146.691406 223.496094 145.035156 224.082031 143.394531 224.703125 C 141.753906 225.328125 140.128906 225.988281 138.519531 226.6875 C 136.910156 227.386719 135.316406 228.121094 133.738281 228.890625 C 132.164062 229.664062 130.605469 230.472656 129.066406 231.316406 C 127.527344 232.160156 126.007812 233.042969 124.511719 233.957031 C 123.011719 234.871094 121.539062 235.820312 120.082031 236.804688 C 118.628906 237.785156 117.199219 238.800781 115.792969 239.851562 C 114.382812 240.902344 113.003906 241.984375 111.644531 243.097656 C 110.289062 244.210938 108.957031 245.351562 107.652344 246.527344 C 106.351562 247.703125 105.074219 248.90625 103.824219 250.140625 C 102.578125 251.375 101.359375 252.636719 100.167969 253.929688 C 98.980469 255.21875 97.820312 256.535156 96.691406 257.878906 C 95.5625 259.226562 94.464844 260.59375 93.398438 261.988281 C 92.335938 263.382812 91.300781 264.804688 90.300781 266.246094 C 89.300781 267.6875 88.335938 269.152344 87.40625 270.640625 C 86.472656 272.128906 85.574219 273.636719 84.714844 275.167969 C 83.851562 276.695312 83.027344 278.242188 82.234375 279.8125 C 81.445312 281.378906 80.691406 282.960938 79.976562 284.566406 C 79.257812 286.167969 78.578125 287.785156 77.9375 289.417969 C 77.296875 291.050781 76.691406 292.699219 76.125 294.363281 C 75.558594 296.023438 75.03125 297.695312 74.542969 299.382812 C 74.058594 301.070312 73.609375 302.765625 73.199219 304.472656 C 72.789062 306.179688 72.417969 307.894531 72.089844 309.617188 C 71.757812 311.34375 71.46875 313.074219 71.21875 314.808594 C 70.96875 316.546875 70.757812 318.289062 70.589844 320.035156 C 70.421875 321.785156 70.292969 323.535156 70.203125 325.289062 C 70.113281 327.039062 70.066406 328.792969 70.058594 330.550781 C 70.054688 332.304688 70.085938 334.058594 70.160156 335.8125 C 70.234375 337.566406 70.351562 339.316406 70.503906 341.066406 C 70.660156 342.816406 70.855469 344.558594 71.09375 346.296875 C 71.328125 348.035156 71.605469 349.769531 71.921875 351.496094 C 72.238281 353.222656 72.59375 354.941406 72.988281 356.652344 C 73.382812 358.359375 73.820312 360.0625 74.292969 361.75 C 74.769531 363.441406 75.28125 365.117188 75.835938 366.785156 C 76.386719 368.453125 76.976562 370.105469 77.605469 371.742188 C 78.234375 373.382812 78.902344 375.003906 79.605469 376.613281 C 80.308594 378.21875 81.050781 379.8125 81.828125 381.382812 C 82.605469 382.957031 83.417969 384.511719 84.269531 386.050781 C 85.117188 387.585938 86.003906 389.101562 86.921875 390.59375 C 87.84375 392.089844 88.796875 393.5625 89.785156 395.015625 C 90.773438 396.464844 91.792969 397.890625 92.847656 399.296875 C 93.902344 400.699219 94.988281 402.078125 96.105469 403.429688 C 97.222656 404.785156 98.371094 406.109375 99.550781 407.410156 C 100.730469 408.710938 101.941406 409.980469 103.179688 411.226562 C 104.417969 412.46875 105.683594 413.683594 106.976562 414.871094 C 108.273438 416.054688 109.59375 417.210938 110.941406 418.335938 C 112.289062 419.460938 113.664062 420.550781 115.0625 421.613281 C 116.460938 422.671875 117.882812 423.699219 119.328125 424.695312 C 120.773438 425.691406 122.242188 426.652344 123.734375 427.578125 C 125.222656 428.503906 126.734375 429.394531 128.265625 430.253906 C 129.800781 431.109375 131.351562 431.929688 132.921875 432.714844 C 134.492188 433.5 136.078125 434.25 137.683594 434.960938 C 139.285156 435.671875 140.90625 436.34375 142.542969 436.980469 C 144.179688 437.617188 145.828125 438.214844 147.492188 438.777344 C 149.15625 439.335938 150.832031 439.855469 152.519531 440.339844 C 154.207031 440.820312 155.90625 441.265625 157.613281 441.667969 C 159.320312 442.074219 161.039062 442.4375 162.761719 442.761719 C 164.488281 443.085938 166.21875 443.371094 167.957031 443.613281 C 169.695312 443.859375 171.4375 444.0625 173.1875 444.226562 C 174.933594 444.386719 176.683594 444.511719 178.4375 444.59375 C 180.191406 444.675781 181.945312 444.71875 183.699219 444.71875 L 208.183594 444.71875 L 208.183594 525.089844 C 208.183594 526.914062 208.101562 528.730469 207.9375 530.542969 C 207.777344 532.359375 207.539062 534.160156 207.222656 535.953125 C 206.90625 537.746094 206.511719 539.523438 206.042969 541.28125 C 205.570312 543.042969 205.027344 544.777344 204.40625 546.488281 C 203.785156 548.199219 203.089844 549.882812 202.324219 551.535156 C 201.558594 553.1875 200.722656 554.800781 199.816406 556.382812 C 198.910156 557.960938 197.9375 559.5 196.898438 560.992188 C 195.859375 562.488281 194.757812 563.9375 193.589844 565.335938 C 192.425781 566.734375 191.203125 568.082031 189.921875 569.375 C 188.640625 570.667969 187.304688 571.90625 185.917969 573.085938 C 184.53125 574.261719 183.09375 575.378906 181.609375 576.433594 C 180.121094 577.488281 178.59375 578.472656 177.023438 579.394531 C 175.453125 580.316406 173.847656 581.167969 172.203125 581.953125 C 170.558594 582.734375 168.882812 583.445312 167.175781 584.082031 C 165.472656 584.71875 163.742188 585.28125 161.988281 585.769531 C 160.234375 586.257812 158.460938 586.667969 156.671875 587.003906 C 156.367188 586.183594 156.039062 585.375 155.691406 584.578125 C 155.339844 583.777344 154.964844 582.992188 154.570312 582.214844 C 154.171875 581.4375 153.753906 580.671875 153.3125 579.921875 C 152.871094 579.167969 152.40625 578.429688 151.921875 577.703125 C 151.4375 576.980469 150.929688 576.269531 150.40625 575.574219 C 149.878906 574.878906 149.332031 574.199219 148.765625 573.535156 C 148.199219 572.871094 147.613281 572.226562 147.011719 571.59375 C 146.40625 570.964844 145.785156 570.355469 145.144531 569.761719 C 144.503906 569.167969 143.847656 568.597656 143.175781 568.042969 C 142.5 567.488281 141.8125 566.953125 141.105469 566.4375 C 140.402344 565.925781 139.683594 565.433594 138.949219 564.960938 C 138.214844 564.488281 137.46875 564.039062 136.707031 563.609375 C 135.949219 563.183594 135.175781 562.777344 134.390625 562.394531 C 133.609375 562.011719 132.816406 561.652344 132.007812 561.316406 C 131.203125 560.980469 130.390625 560.667969 129.566406 560.378906 C 128.746094 560.089844 127.914062 559.824219 127.074219 559.585938 C 126.234375 559.347656 125.390625 559.128906 124.539062 558.941406 C 123.6875 558.75 122.832031 558.585938 121.972656 558.445312 C 121.109375 558.304688 120.246094 558.1875 119.378906 558.097656 C 118.511719 558.011719 117.640625 557.945312 116.769531 557.90625 C 115.898438 557.867188 115.027344 557.855469 114.15625 557.867188 C 113.28125 557.878906 112.410156 557.917969 111.542969 557.980469 C 110.671875 558.042969 109.804688 558.132812 108.941406 558.246094 C 108.074219 558.363281 107.214844 558.5 106.355469 558.664062 C 105.5 558.832031 104.648438 559.019531 103.804688 559.234375 C 102.957031 559.449219 102.121094 559.6875 101.289062 559.953125 C 100.457031 560.214844 99.632812 560.503906 98.820312 560.816406 C 98.003906 561.128906 97.199219 561.460938 96.40625 561.820312 C 95.609375 562.179688 94.828125 562.5625 94.054688 562.96875 C 93.28125 563.371094 92.519531 563.800781 91.773438 564.25 C 91.027344 564.699219 90.292969 565.167969 89.570312 565.660156 C 88.851562 566.15625 88.148438 566.667969 87.457031 567.199219 C 86.765625 567.734375 86.09375 568.289062 85.4375 568.863281 C 84.777344 569.433594 84.136719 570.027344 83.515625 570.636719 C 82.894531 571.25 82.289062 571.875 81.703125 572.523438 C 81.117188 573.167969 80.550781 573.832031 80.003906 574.511719 C 79.457031 575.191406 78.929688 575.886719 78.421875 576.59375 C 77.914062 577.304688 77.429688 578.03125 76.964844 578.769531 C 76.503906 579.507812 76.058594 580.257812 75.640625 581.023438 C 75.21875 581.789062 74.824219 582.5625 74.449219 583.351562 C 74.074219 584.140625 73.722656 584.9375 73.394531 585.746094 C 73.066406 586.554688 72.761719 587.371094 72.484375 588.199219 C 72.203125 589.023438 71.949219 589.855469 71.71875 590.699219 C 71.484375 591.539062 71.28125 592.386719 71.097656 593.238281 C 70.917969 594.09375 70.761719 594.949219 70.628906 595.8125 C 70.5 596.675781 70.390625 597.542969 70.3125 598.410156 C 70.230469 599.277344 70.175781 600.148438 70.148438 601.019531 C 70.117188 601.890625 70.113281 602.765625 70.136719 603.636719 C 70.15625 604.507812 70.203125 605.378906 70.277344 606.246094 C 70.347656 607.117188 70.445312 607.984375 70.570312 608.847656 C 70.695312 609.710938 70.84375 610.570312 71.015625 611.425781 C 71.191406 612.277344 71.386719 613.128906 71.613281 613.972656 C 71.835938 614.816406 72.082031 615.652344 72.355469 616.480469 C 72.628906 617.308594 72.925781 618.128906 73.246094 618.9375 C 73.566406 619.75 73.910156 620.550781 74.277344 621.34375 C 74.644531 622.132812 75.035156 622.914062 75.445312 623.683594 C 75.859375 624.449219 76.296875 625.207031 76.753906 625.949219 C 77.210938 626.691406 77.6875 627.421875 78.1875 628.136719 C 78.6875 628.851562 79.207031 629.550781 79.75 630.234375 C 80.289062 630.917969 80.851562 631.585938 81.429688 632.238281 C 82.011719 632.886719 82.609375 633.523438 83.226562 634.136719 C 83.84375 634.753906 84.480469 635.351562 85.132812 635.933594 C 85.785156 636.511719 86.453125 637.070312 87.136719 637.609375 C 87.824219 638.152344 88.523438 638.671875 89.238281 639.167969 C 89.953125 639.667969 90.683594 640.144531 91.425781 640.601562 C 92.171875 641.058594 92.925781 641.492188 93.695312 641.902344 C 94.464844 642.316406 95.246094 642.703125 96.035156 643.070312 C 96.828125 643.4375 97.628906 643.78125 98.441406 644.097656 C 99.253906 644.417969 100.074219 644.714844 100.902344 644.984375 C 101.730469 645.257812 102.566406 645.503906 103.410156 645.726562 C 104.253906 645.945312 105.105469 646.144531 105.960938 646.316406 C 106.816406 646.488281 107.675781 646.636719 108.539062 646.757812 C 109.402344 646.878906 110.269531 646.976562 111.136719 647.046875 C 112.007812 647.121094 112.878906 647.164062 113.75 647.1875 C 114.621094 647.207031 115.492188 647.199219 116.367188 647.171875 C 117.238281 647.140625 118.105469 647.082031 118.976562 647 C 119.84375 646.917969 120.710938 646.8125 121.570312 646.679688 C 122.433594 646.546875 123.292969 646.390625 124.144531 646.207031 C 124.996094 646.023438 125.84375 645.816406 126.683594 645.585938 C 127.527344 645.351562 128.359375 645.097656 129.183594 644.816406 C 130.011719 644.535156 130.828125 644.230469 131.636719 643.898438 C 132.441406 643.570312 133.242188 643.21875 134.027344 642.84375 C 134.816406 642.46875 135.589844 642.070312 136.355469 641.648438 C 137.117188 641.226562 137.867188 640.785156 138.605469 640.316406 C 139.34375 639.851562 140.070312 639.367188 140.777344 638.859375 C 141.488281 638.351562 142.179688 637.824219 142.859375 637.277344 C 143.539062 636.726562 144.199219 636.160156 144.84375 635.574219 C 145.492188 634.984375 146.117188 634.378906 146.726562 633.757812 C 147.339844 633.132812 147.929688 632.492188 148.5 631.832031 C 149.074219 631.175781 149.625 630.5 150.160156 629.808594 C 150.691406 629.121094 151.203125 628.414062 151.695312 627.691406 C 152.1875 626.972656 152.65625 626.238281 153.105469 625.488281 C 153.554688 624.742188 153.980469 623.980469 154.382812 623.207031 C 154.785156 622.433594 155.167969 621.648438 155.523438 620.855469 C 155.882812 620.058594 156.21875 619.253906 156.527344 618.4375 C 156.839844 617.625 157.125 616.800781 157.386719 615.96875 C 160.109375 615.597656 162.808594 615.105469 165.484375 614.492188 C 168.160156 613.878906 170.804688 613.148438 173.414062 612.300781 C 176.027344 611.449219 178.59375 610.484375 181.121094 609.40625 C 183.644531 608.324219 186.117188 607.132812 188.535156 605.832031 C 190.953125 604.53125 193.308594 603.125 195.597656 601.609375 C 197.890625 600.097656 200.109375 598.484375 202.257812 596.773438 C 204.40625 595.0625 206.472656 593.257812 208.457031 591.359375 C 210.441406 589.464844 212.339844 587.480469 214.144531 585.414062 C 215.953125 583.347656 217.664062 581.203125 219.28125 578.984375 C 220.898438 576.761719 222.410156 574.476562 223.820312 572.117188 C 225.230469 569.761719 226.53125 567.347656 227.726562 564.875 C 228.921875 562.402344 230 559.878906 230.96875 557.3125 C 231.9375 554.742188 232.789062 552.132812 233.519531 549.488281 C 234.253906 546.839844 234.871094 544.167969 235.363281 541.464844 C 235.859375 538.765625 236.230469 536.046875 236.480469 533.3125 C 236.730469 530.578125 236.859375 527.835938 236.863281 525.089844 L 236.863281 444.71875 L 334.800781 444.71875 L 334.800781 660.957031 C 333.972656 661.238281 333.152344 661.542969 332.339844 661.871094 C 331.527344 662.199219 330.726562 662.550781 329.9375 662.929688 C 329.144531 663.304688 328.367188 663.703125 327.597656 664.125 C 326.832031 664.542969 326.074219 664.988281 325.335938 665.453125 C 324.59375 665.917969 323.867188 666.40625 323.152344 666.914062 C 322.4375 667.421875 321.742188 667.953125 321.058594 668.5 C 320.378906 669.050781 319.710938 669.621094 319.0625 670.207031 C 318.414062 670.796875 317.785156 671.402344 317.171875 672.027344 C 316.558594 672.652344 315.964844 673.296875 315.386719 673.957031 C 314.8125 674.617188 314.257812 675.292969 313.722656 675.984375 C 313.1875 676.679688 312.671875 677.386719 312.175781 678.109375 C 311.683594 678.832031 311.210938 679.570312 310.757812 680.320312 C 310.308594 681.070312 309.878906 681.832031 309.472656 682.609375 C 309.066406 683.386719 308.683594 684.171875 308.324219 684.972656 C 307.964844 685.769531 307.628906 686.578125 307.316406 687.394531 C 307.003906 688.214844 306.714844 689.039062 306.449219 689.875 C 306.1875 690.710938 305.949219 691.550781 305.734375 692.402344 C 305.519531 693.25 305.328125 694.105469 305.164062 694.964844 C 305 695.824219 304.859375 696.6875 304.746094 697.558594 C 304.632812 698.425781 304.542969 699.296875 304.480469 700.171875 C 304.417969 701.042969 304.382812 701.917969 304.371094 702.792969 C 304.359375 703.667969 304.375 704.542969 304.414062 705.417969 C 304.453125 706.292969 304.519531 707.167969 304.609375 708.039062 C 304.703125 708.910156 304.820312 709.777344 304.960938 710.640625 C 305.101562 711.503906 305.269531 712.363281 305.460938 713.21875 C 305.65625 714.074219 305.871094 714.921875 306.113281 715.761719 C 306.355469 716.605469 306.625 717.4375 306.914062 718.261719 C 307.207031 719.089844 307.519531 719.90625 307.859375 720.714844 C 308.199219 721.519531 308.5625 722.316406 308.949219 723.105469 C 309.332031 723.890625 309.742188 724.664062 310.171875 725.425781 C 310.605469 726.1875 311.058594 726.9375 311.535156 727.671875 C 312.007812 728.410156 312.503906 729.128906 313.023438 729.835938 C 313.539062 730.542969 314.078125 731.234375 314.636719 731.90625 C 315.195312 732.582031 315.769531 733.242188 316.367188 733.882812 C 316.964844 734.523438 317.578125 735.144531 318.210938 735.75 C 318.847656 736.355469 319.496094 736.941406 320.164062 737.507812 C 320.832031 738.074219 321.515625 738.621094 322.214844 739.148438 C 322.914062 739.675781 323.628906 740.179688 324.359375 740.664062 C 325.085938 741.148438 325.832031 741.613281 326.585938 742.054688 C 327.34375 742.496094 328.113281 742.914062 328.894531 743.308594 C 329.675781 743.707031 330.464844 744.078125 331.269531 744.429688 C 332.074219 744.777344 332.886719 745.101562 333.707031 745.40625 C 334.527344 745.707031 335.359375 745.984375 336.199219 746.238281 C 337.035156 746.492188 337.882812 746.71875 338.734375 746.921875 C 339.585938 747.125 340.441406 747.304688 341.304688 747.457031 C 342.164062 747.613281 343.03125 747.738281 343.902344 747.84375 C 344.769531 747.945312 345.644531 748.019531 346.515625 748.074219 C 347.390625 748.125 348.265625 748.148438 349.140625 748.148438 C 350.019531 748.148438 350.894531 748.125 351.765625 748.074219 C 352.640625 748.019531 353.511719 747.945312 354.382812 747.84375 C 355.253906 747.738281 356.117188 747.613281 356.980469 747.457031 C 357.84375 747.304688 358.699219 747.125 359.550781 746.921875 C 360.402344 746.71875 361.25 746.492188 362.085938 746.238281 C 362.925781 745.984375 363.753906 745.707031 364.578125 745.40625 C 365.398438 745.101562 366.210938 744.777344 367.015625 744.429688 C 367.816406 744.078125 368.609375 743.707031 369.390625 743.308594 C 370.171875 742.914062 370.941406 742.496094 371.695312 742.054688 C 372.453125 741.613281 373.195312 741.148438 373.925781 740.664062 C 374.65625 740.179688 375.371094 739.675781 376.070312 739.148438 C 376.769531 738.621094 377.453125 738.074219 378.121094 737.507812 C 378.789062 736.941406 379.4375 736.355469 380.070312 735.75 C 380.703125 735.144531 381.320312 734.523438 381.917969 733.882812 C 382.511719 733.242188 383.089844 732.582031 383.648438 731.90625 C 384.207031 731.234375 384.746094 730.542969 385.261719 729.835938 C 385.777344 729.128906 386.277344 728.410156 386.75 727.671875 C 387.226562 726.9375 387.679688 726.1875 388.109375 725.425781 C 388.542969 724.664062 388.949219 723.890625 389.335938 723.105469 C 389.722656 722.316406 390.085938 721.519531 390.425781 720.714844 C 390.761719 719.90625 391.078125 719.089844 391.371094 718.261719 C 391.660156 717.4375 391.925781 716.605469 392.167969 715.761719 C 392.410156 714.921875 392.628906 714.074219 392.820312 713.21875 C 393.015625 712.363281 393.179688 711.503906 393.324219 710.640625 C 393.464844 709.777344 393.582031 708.910156 393.671875 708.039062 C 393.765625 707.167969 393.832031 706.292969 393.871094 705.417969 C 393.910156 704.542969 393.925781 703.667969 393.914062 702.792969 C 393.902344 701.917969 393.863281 701.042969 393.800781 700.171875 C 393.738281 699.296875 393.652344 698.425781 393.539062 697.558594 C 393.425781 696.6875 393.285156 695.824219 393.121094 694.964844 C 392.957031 694.105469 392.765625 693.25 392.550781 692.402344 C 392.335938 691.550781 392.097656 690.710938 391.832031 689.875 C 391.570312 689.039062 391.28125 688.214844 390.96875 687.394531 C 390.65625 686.578125 390.320312 685.769531 389.960938 684.972656 C 389.601562 684.171875 389.21875 683.386719 388.8125 682.609375 C 388.40625 681.832031 387.976562 681.070312 387.527344 680.320312 C 387.074219 679.570312 386.601562 678.832031 386.109375 678.109375 C 385.613281 677.386719 385.097656 676.679688 384.5625 675.984375 C 384.027344 675.292969 383.472656 674.617188 382.894531 673.957031 C 382.320312 673.296875 381.726562 672.652344 381.113281 672.027344 C 380.5 671.402344 379.871094 670.796875 379.222656 670.207031 C 378.574219 669.621094 377.90625 669.050781 377.226562 668.5 C 376.542969 667.953125 375.84375 667.421875 375.132812 666.914062 C 374.417969 666.40625 373.691406 665.917969 372.949219 665.453125 C 372.207031 664.988281 371.453125 664.542969 370.6875 664.125 C 369.917969 663.703125 369.140625 663.304688 368.347656 662.929688 C 367.558594 662.550781 366.753906 662.199219 365.945312 661.871094 C 365.132812 661.542969 364.3125 661.238281 363.480469 660.957031 L 363.480469 444.71875 L 461.457031 444.71875 L 461.457031 613.710938 C 460.628906 613.988281 459.808594 614.292969 458.996094 614.621094 C 458.1875 614.953125 457.386719 615.304688 456.59375 615.679688 C 455.804688 616.054688 455.027344 616.453125 454.257812 616.875 C 453.492188 617.296875 452.738281 617.738281 451.996094 618.203125 C 451.257812 618.667969 450.53125 619.15625 449.816406 619.664062 C 449.105469 620.171875 448.410156 620.699219 447.726562 621.25 C 447.046875 621.796875 446.382812 622.367188 445.734375 622.953125 C 445.085938 623.542969 444.453125 624.148438 443.84375 624.773438 C 443.230469 625.398438 442.636719 626.039062 442.0625 626.699219 C 441.488281 627.359375 440.933594 628.035156 440.398438 628.730469 C 439.863281 629.421875 439.347656 630.128906 438.855469 630.851562 C 438.359375 631.574219 437.890625 632.308594 437.4375 633.058594 C 436.988281 633.808594 436.558594 634.574219 436.15625 635.347656 C 435.75 636.121094 435.367188 636.910156 435.007812 637.707031 C 434.648438 638.503906 434.3125 639.3125 434 640.128906 C 433.6875 640.945312 433.398438 641.773438 433.136719 642.605469 C 432.871094 643.441406 432.632812 644.28125 432.417969 645.132812 C 432.203125 645.980469 432.015625 646.832031 431.851562 647.691406 C 431.6875 648.550781 431.546875 649.414062 431.433594 650.28125 C 431.320312 651.152344 431.234375 652.019531 431.171875 652.894531 C 431.109375 653.765625 431.070312 654.640625 431.058594 655.515625 C 431.050781 656.390625 431.0625 657.265625 431.101562 658.136719 C 431.144531 659.011719 431.210938 659.882812 431.300781 660.753906 C 431.390625 661.625 431.507812 662.492188 431.652344 663.355469 C 431.792969 664.21875 431.960938 665.078125 432.152344 665.929688 C 432.34375 666.785156 432.5625 667.628906 432.804688 668.472656 C 433.046875 669.3125 433.3125 670.144531 433.605469 670.96875 C 433.894531 671.796875 434.210938 672.609375 434.550781 673.417969 C 434.886719 674.222656 435.25 675.019531 435.636719 675.804688 C 436.019531 676.589844 436.429688 677.363281 436.859375 678.125 C 437.292969 678.886719 437.746094 679.636719 438.21875 680.371094 C 438.695312 681.105469 439.191406 681.824219 439.707031 682.53125 C 440.222656 683.238281 440.761719 683.925781 441.320312 684.601562 C 441.878906 685.277344 442.453125 685.933594 443.050781 686.574219 C 443.644531 687.214844 444.261719 687.835938 444.894531 688.441406 C 445.527344 689.042969 446.175781 689.628906 446.84375 690.195312 C 447.511719 690.761719 448.191406 691.308594 448.890625 691.835938 C 449.589844 692.359375 450.304688 692.867188 451.035156 693.351562 C 451.761719 693.835938 452.503906 694.296875 453.261719 694.738281 C 454.015625 695.179688 454.785156 695.597656 455.566406 695.992188 C 456.34375 696.386719 457.136719 696.761719 457.9375 697.109375 C 458.742188 697.457031 459.554688 697.785156 460.375 698.085938 C 461.195312 698.386719 462.023438 698.664062 462.863281 698.917969 C 463.699219 699.171875 464.542969 699.398438 465.394531 699.601562 C 466.246094 699.804688 467.101562 699.984375 467.964844 700.136719 C 468.824219 700.289062 469.691406 700.417969 470.558594 700.519531 C 471.429688 700.621094 472.300781 700.699219 473.171875 700.75 C 474.046875 700.800781 474.921875 700.828125 475.796875 700.828125 C 476.671875 700.828125 477.542969 700.800781 478.417969 700.75 C 479.292969 700.699219 480.164062 700.621094 481.03125 700.519531 C 481.902344 700.417969 482.765625 700.289062 483.628906 700.136719 C 484.488281 699.984375 485.34375 699.804688 486.195312 699.601562 C 487.046875 699.398438 487.890625 699.171875 488.730469 698.917969 C 489.566406 698.664062 490.394531 698.386719 491.21875 698.085938 C 492.039062 697.785156 492.851562 697.457031 493.652344 697.109375 C 494.453125 696.761719 495.246094 696.386719 496.027344 695.992188 C 496.808594 695.597656 497.574219 695.179688 498.332031 694.738281 C 499.085938 694.296875 499.828125 693.835938 500.558594 693.351562 C 501.285156 692.867188 502 692.359375 502.699219 691.835938 C 503.398438 691.308594 504.082031 690.761719 504.75 690.195312 C 505.414062 689.628906 506.066406 689.042969 506.699219 688.441406 C 507.332031 687.835938 507.945312 687.214844 508.542969 686.574219 C 509.136719 685.933594 509.714844 685.277344 510.273438 684.601562 C 510.828125 683.925781 511.367188 683.238281 511.882812 682.53125 C 512.402344 681.824219 512.898438 681.105469 513.371094 680.371094 C 513.847656 679.636719 514.300781 678.886719 514.730469 678.125 C 515.160156 677.363281 515.570312 676.589844 515.957031 675.804688 C 516.339844 675.019531 516.703125 674.222656 517.042969 673.417969 C 517.382812 672.609375 517.695312 671.796875 517.988281 670.96875 C 518.277344 670.144531 518.542969 669.3125 518.785156 668.472656 C 519.027344 667.628906 519.246094 666.785156 519.4375 665.929688 C 519.632812 665.078125 519.796875 664.21875 519.941406 663.355469 C 520.082031 662.492188 520.199219 661.625 520.289062 660.753906 C 520.382812 659.882812 520.449219 659.011719 520.488281 658.136719 C 520.527344 657.265625 520.542969 656.390625 520.53125 655.515625 C 520.519531 654.640625 520.484375 653.765625 520.421875 652.894531 C 520.359375 652.019531 520.269531 651.152344 520.15625 650.28125 C 520.042969 649.414062 519.902344 648.550781 519.738281 647.691406 C 519.574219 646.832031 519.386719 645.980469 519.171875 645.132812 C 518.957031 644.28125 518.71875 643.441406 518.457031 642.605469 C 518.191406 641.773438 517.902344 640.945312 517.59375 640.128906 C 517.28125 639.3125 516.945312 638.503906 516.585938 637.707031 C 516.226562 636.910156 515.84375 636.121094 515.4375 635.347656 C 515.03125 634.574219 514.601562 633.808594 514.152344 633.058594 C 513.703125 632.308594 513.230469 631.574219 512.738281 630.851562 C 512.242188 630.128906 511.730469 629.421875 511.195312 628.730469 C 510.660156 628.035156 510.105469 627.359375 509.53125 626.699219 C 508.953125 626.039062 508.359375 625.398438 507.75 624.773438 C 507.136719 624.148438 506.507812 623.542969 505.859375 622.953125 C 505.210938 622.367188 504.546875 621.796875 503.863281 621.25 C 503.183594 620.699219 502.484375 620.171875 501.773438 619.664062 C 501.0625 619.15625 500.335938 618.667969 499.59375 618.203125 C 498.851562 617.738281 498.097656 617.296875 497.332031 616.875 C 496.566406 616.453125 495.785156 616.054688 494.996094 615.679688 C 494.207031 615.304688 493.40625 614.953125 492.59375 614.621094 C 491.785156 614.292969 490.964844 613.988281 490.136719 613.710938 L 490.136719 444.71875 L 579.039062 444.71875 L 579.039062 509.246094 C 579.042969 511.929688 579.167969 514.605469 579.410156 517.28125 C 579.652344 519.953125 580.015625 522.609375 580.496094 525.246094 C 580.976562 527.886719 581.574219 530.5 582.289062 533.085938 C 583.003906 535.671875 583.832031 538.222656 584.777344 540.734375 C 585.71875 543.246094 586.773438 545.710938 587.9375 548.128906 C 589.101562 550.546875 590.371094 552.90625 591.746094 555.210938 C 593.121094 557.515625 594.59375 559.753906 596.171875 561.925781 C 597.746094 564.097656 599.414062 566.195312 601.179688 568.214844 C 602.941406 570.238281 604.792969 572.179688 606.730469 574.035156 C 608.667969 575.890625 610.683594 577.660156 612.777344 579.335938 C 614.871094 581.011719 617.039062 582.589844 619.273438 584.074219 C 621.511719 585.554688 623.808594 586.933594 626.167969 588.210938 C 628.53125 589.488281 630.941406 590.65625 633.40625 591.71875 C 635.871094 592.777344 638.378906 593.726562 640.925781 594.5625 C 643.476562 595.398438 646.058594 596.121094 648.671875 596.726562 C 651.289062 597.332031 653.921875 597.816406 656.582031 598.1875 C 656.84375 599.023438 657.128906 599.847656 657.441406 600.667969 C 657.75 601.488281 658.085938 602.296875 658.441406 603.09375 C 658.800781 603.894531 659.183594 604.679688 659.585938 605.457031 C 659.988281 606.234375 660.417969 607 660.867188 607.75 C 661.316406 608.503906 661.785156 609.238281 662.277344 609.964844 C 662.769531 610.6875 663.28125 611.398438 663.816406 612.089844 C 664.351562 612.785156 664.902344 613.464844 665.476562 614.125 C 666.050781 614.785156 666.644531 615.429688 667.253906 616.058594 C 667.867188 616.683594 668.496094 617.292969 669.140625 617.882812 C 669.789062 618.472656 670.453125 619.042969 671.132812 619.59375 C 671.8125 620.144531 672.507812 620.675781 673.21875 621.1875 C 673.933594 621.695312 674.65625 622.1875 675.398438 622.652344 C 676.136719 623.121094 676.890625 623.566406 677.65625 623.992188 C 678.425781 624.414062 679.203125 624.816406 679.992188 625.191406 C 680.78125 625.570312 681.582031 625.925781 682.390625 626.257812 C 683.203125 626.585938 684.023438 626.894531 684.851562 627.175781 C 685.679688 627.460938 686.515625 627.71875 687.359375 627.953125 C 688.203125 628.1875 689.050781 628.394531 689.910156 628.582031 C 690.765625 628.765625 691.625 628.921875 692.492188 629.058594 C 693.355469 629.191406 694.222656 629.300781 695.097656 629.382812 C 695.96875 629.464844 696.839844 629.523438 697.714844 629.554688 C 698.589844 629.585938 699.464844 629.59375 700.339844 629.574219 C 701.214844 629.550781 702.089844 629.507812 702.964844 629.4375 C 703.835938 629.367188 704.707031 629.269531 705.574219 629.148438 C 706.441406 629.027344 707.300781 628.878906 708.160156 628.707031 C 709.019531 628.535156 709.871094 628.335938 710.71875 628.113281 C 711.566406 627.890625 712.40625 627.644531 713.238281 627.371094 C 714.070312 627.101562 714.894531 626.804688 715.707031 626.484375 C 716.523438 626.164062 717.328125 625.824219 718.125 625.457031 C 718.917969 625.089844 719.703125 624.699219 720.472656 624.285156 C 721.246094 623.871094 722.003906 623.4375 722.75 622.980469 C 723.5 622.523438 724.230469 622.042969 724.949219 621.542969 C 725.667969 621.042969 726.371094 620.519531 727.058594 619.980469 C 727.746094 619.4375 728.417969 618.875 729.074219 618.296875 C 729.726562 617.714844 730.367188 617.113281 730.984375 616.496094 C 731.605469 615.878906 732.207031 615.242188 732.789062 614.589844 C 733.371094 613.933594 733.933594 613.265625 734.476562 612.578125 C 735.019531 611.890625 735.542969 611.1875 736.046875 610.472656 C 736.546875 609.753906 737.027344 609.023438 737.488281 608.277344 C 737.949219 607.53125 738.382812 606.773438 738.800781 606.003906 C 739.214844 605.230469 739.605469 604.449219 739.976562 603.65625 C 740.34375 602.863281 740.6875 602.058594 741.011719 601.242188 C 741.332031 600.429688 741.628906 599.605469 741.902344 598.773438 C 742.175781 597.941406 742.425781 597.101562 742.652344 596.257812 C 742.875 595.410156 743.074219 594.558594 743.25 593.699219 C 743.421875 592.84375 743.574219 591.980469 743.695312 591.113281 C 743.820312 590.246094 743.917969 589.378906 743.992188 588.503906 C 744.066406 587.632812 744.113281 586.757812 744.132812 585.882812 C 744.15625 585.007812 744.152344 584.132812 744.121094 583.257812 C 744.09375 582.382812 744.039062 581.507812 743.957031 580.636719 C 743.875 579.765625 743.769531 578.898438 743.636719 578.03125 C 743.507812 577.164062 743.347656 576.304688 743.167969 575.449219 C 742.984375 574.589844 742.777344 573.742188 742.546875 572.898438 C 742.3125 572.054688 742.058594 571.214844 741.777344 570.386719 C 741.496094 569.558594 741.1875 568.738281 740.859375 567.925781 C 740.53125 567.113281 740.179688 566.3125 739.800781 565.523438 C 739.425781 564.730469 739.027344 563.953125 738.605469 563.1875 C 738.183594 562.417969 737.738281 561.664062 737.273438 560.921875 C 736.808594 560.183594 736.320312 559.457031 735.8125 558.742188 C 735.304688 558.03125 734.773438 557.332031 734.226562 556.652344 C 733.675781 555.96875 733.105469 555.304688 732.519531 554.65625 C 731.929688 554.007812 731.324219 553.378906 730.699219 552.765625 C 730.070312 552.152344 729.429688 551.558594 728.769531 550.984375 C 728.109375 550.40625 727.433594 549.851562 726.738281 549.316406 C 726.046875 548.78125 725.339844 548.265625 724.617188 547.773438 C 723.894531 547.277344 723.15625 546.804688 722.40625 546.355469 C 721.65625 545.90625 720.890625 545.476562 720.117188 545.070312 C 719.339844 544.664062 718.554688 544.28125 717.753906 543.921875 C 716.957031 543.5625 716.148438 543.226562 715.332031 542.914062 C 714.511719 542.601562 713.6875 542.3125 712.851562 542.046875 C 712.015625 541.785156 711.175781 541.546875 710.328125 541.332031 C 709.476562 541.117188 708.625 540.925781 707.761719 540.761719 C 706.902344 540.597656 706.039062 540.457031 705.171875 540.34375 C 704.304688 540.230469 703.433594 540.140625 702.558594 540.078125 C 701.6875 540.015625 700.8125 539.976562 699.9375 539.964844 C 699.058594 539.953125 698.183594 539.96875 697.3125 540.007812 C 696.4375 540.046875 695.5625 540.113281 694.691406 540.203125 C 693.820312 540.292969 692.953125 540.410156 692.089844 540.550781 C 691.226562 540.691406 690.367188 540.859375 689.511719 541.050781 C 688.660156 541.242188 687.8125 541.460938 686.96875 541.703125 C 686.128906 541.945312 685.292969 542.210938 684.46875 542.5 C 683.640625 542.792969 682.824219 543.105469 682.019531 543.445312 C 681.210938 543.78125 680.414062 544.144531 679.628906 544.527344 C 678.839844 544.914062 678.066406 545.320312 677.304688 545.753906 C 676.542969 546.183594 675.792969 546.636719 675.054688 547.109375 C 674.320312 547.585938 673.597656 548.078125 672.890625 548.597656 C 672.183594 549.113281 671.496094 549.648438 670.820312 550.207031 C 670.144531 550.765625 669.484375 551.339844 668.84375 551.9375 C 668.203125 552.53125 667.578125 553.148438 666.972656 553.777344 C 666.367188 554.410156 665.78125 555.0625 665.214844 555.726562 C 664.644531 556.394531 664.097656 557.078125 663.570312 557.777344 C 663.042969 558.476562 662.535156 559.1875 662.050781 559.917969 C 661.566406 560.644531 661.101562 561.386719 660.660156 562.144531 C 660.21875 562.898438 659.796875 563.667969 659.402344 564.449219 C 659.003906 565.226562 658.628906 566.019531 658.277344 566.820312 C 657.929688 567.625 657.601562 568.4375 657.296875 569.257812 C 655.566406 568.921875 653.855469 568.515625 652.160156 568.03125 C 650.46875 567.550781 648.796875 566.996094 647.148438 566.367188 C 645.503906 565.742188 643.886719 565.046875 642.300781 564.28125 C 640.714844 563.515625 639.164062 562.679688 637.648438 561.78125 C 636.136719 560.878906 634.664062 559.917969 633.230469 558.890625 C 631.800781 557.863281 630.414062 556.777344 629.078125 555.628906 C 627.742188 554.480469 626.457031 553.28125 625.222656 552.023438 C 623.988281 550.765625 622.8125 549.457031 621.691406 548.097656 C 620.570312 546.734375 619.511719 545.332031 618.511719 543.878906 C 617.511719 542.429688 616.578125 540.9375 615.707031 539.40625 C 614.835938 537.875 614.035156 536.308594 613.300781 534.707031 C 612.5625 533.105469 611.898438 531.476562 611.304688 529.816406 C 610.710938 528.160156 610.191406 526.476562 609.742188 524.773438 C 609.292969 523.070312 608.917969 521.351562 608.617188 519.617188 C 608.316406 517.878906 608.089844 516.132812 607.941406 514.378906 C 607.789062 512.625 607.71875 510.863281 607.71875 509.101562 L 607.71875 444.574219 Z M 114.726562 618.511719 C 114.203125 618.507812 113.679688 618.476562 113.15625 618.421875 C 112.636719 618.367188 112.117188 618.285156 111.601562 618.179688 C 111.089844 618.070312 110.582031 617.9375 110.082031 617.78125 C 109.578125 617.625 109.085938 617.445312 108.605469 617.242188 C 108.121094 617.035156 107.648438 616.808594 107.1875 616.554688 C 106.726562 616.304688 106.277344 616.03125 105.84375 615.738281 C 105.410156 615.441406 104.992188 615.125 104.589844 614.789062 C 104.183594 614.453125 103.800781 614.097656 103.429688 613.726562 C 103.0625 613.351562 102.710938 612.960938 102.382812 612.550781 C 102.050781 612.144531 101.742188 611.71875 101.453125 611.28125 C 101.164062 610.84375 100.898438 610.390625 100.65625 609.925781 C 100.410156 609.460938 100.191406 608.988281 99.992188 608.5 C 99.792969 608.015625 99.621094 607.519531 99.472656 607.015625 C 99.324219 606.511719 99.199219 606.003906 99.101562 605.488281 C 99 604.972656 98.925781 604.453125 98.878906 603.929688 C 98.832031 603.40625 98.808594 602.882812 98.8125 602.359375 C 98.8125 601.832031 98.84375 601.308594 98.898438 600.789062 C 98.953125 600.265625 99.03125 599.746094 99.136719 599.234375 C 99.242188 598.71875 99.371094 598.210938 99.527344 597.707031 C 99.683594 597.207031 99.863281 596.714844 100.066406 596.230469 C 100.269531 595.746094 100.496094 595.273438 100.746094 594.8125 C 100.996094 594.351562 101.265625 593.902344 101.558594 593.464844 C 101.855469 593.03125 102.167969 592.613281 102.503906 592.207031 C 102.839844 591.804688 103.191406 591.417969 103.566406 591.046875 C 103.9375 590.675781 104.328125 590.328125 104.734375 589.996094 C 105.140625 589.664062 105.566406 589.355469 106.003906 589.0625 C 106.441406 588.773438 106.890625 588.507812 107.355469 588.261719 C 107.820312 588.015625 108.292969 587.792969 108.78125 587.59375 C 109.265625 587.394531 109.761719 587.21875 110.261719 587.070312 C 110.765625 586.917969 111.273438 586.792969 111.789062 586.691406 C 112.304688 586.589844 112.824219 586.515625 113.347656 586.464844 C 113.871094 586.414062 114.394531 586.390625 114.917969 586.394531 C 115.441406 586.394531 115.96875 586.421875 116.488281 586.476562 C 117.011719 586.527344 117.53125 586.605469 118.042969 586.710938 C 118.558594 586.8125 119.066406 586.941406 119.570312 587.097656 C 120.070312 587.25 120.566406 587.425781 121.050781 587.628906 C 121.535156 587.832031 122.007812 588.054688 122.46875 588.304688 C 122.933594 588.554688 123.382812 588.824219 123.816406 589.117188 C 124.253906 589.410156 124.675781 589.722656 125.078125 590.054688 C 125.484375 590.390625 125.871094 590.742188 126.242188 591.113281 C 126.613281 591.484375 126.964844 591.875 127.296875 592.28125 C 127.632812 592.6875 127.941406 593.109375 128.234375 593.546875 C 128.523438 593.980469 128.792969 594.433594 129.042969 594.894531 C 129.289062 595.359375 129.511719 595.832031 129.710938 596.316406 C 129.914062 596.804688 130.089844 597.296875 130.242188 597.800781 C 130.394531 598.300781 130.519531 598.8125 130.625 599.324219 C 130.726562 599.839844 130.800781 600.359375 130.855469 600.882812 C 130.90625 601.402344 130.929688 601.929688 130.929688 602.453125 C 130.929688 602.980469 130.902344 603.507812 130.847656 604.035156 C 130.796875 604.5625 130.71875 605.082031 130.613281 605.601562 C 130.507812 606.121094 130.378906 606.632812 130.222656 607.136719 C 130.070312 607.640625 129.890625 608.140625 129.683594 608.625 C 129.480469 609.113281 129.253906 609.589844 129.003906 610.054688 C 128.753906 610.519531 128.480469 610.972656 128.183594 611.410156 C 127.886719 611.851562 127.570312 612.273438 127.234375 612.679688 C 126.898438 613.085938 126.542969 613.476562 126.164062 613.847656 C 125.789062 614.222656 125.398438 614.574219 124.988281 614.90625 C 124.578125 615.242188 124.152344 615.554688 123.710938 615.84375 C 123.269531 616.136719 122.816406 616.40625 122.347656 616.652344 C 121.878906 616.898438 121.402344 617.121094 120.910156 617.320312 C 120.421875 617.523438 119.925781 617.695312 119.417969 617.847656 C 118.910156 617.996094 118.398438 618.125 117.878906 618.222656 C 117.359375 618.324219 116.835938 618.398438 116.308594 618.445312 C 115.785156 618.496094 115.257812 618.515625 114.726562 618.511719 Z M 349.140625 719.390625 C 348.617188 719.390625 348.09375 719.363281 347.570312 719.3125 C 347.046875 719.257812 346.527344 719.179688 346.011719 719.074219 C 345.496094 718.972656 344.988281 718.84375 344.484375 718.691406 C 343.980469 718.535156 343.488281 718.359375 343 718.15625 C 342.515625 717.953125 342.042969 717.730469 341.578125 717.480469 C 341.117188 717.230469 340.664062 716.960938 340.230469 716.667969 C 339.792969 716.375 339.371094 716.0625 338.964844 715.726562 C 338.558594 715.390625 338.171875 715.039062 337.800781 714.667969 C 337.429688 714.292969 337.078125 713.902344 336.746094 713.496094 C 336.410156 713.089844 336.101562 712.667969 335.808594 712.230469 C 335.515625 711.792969 335.25 711.339844 335 710.878906 C 334.753906 710.414062 334.53125 709.9375 334.328125 709.453125 C 334.128906 708.964844 333.953125 708.472656 333.800781 707.96875 C 333.648438 707.464844 333.523438 706.957031 333.421875 706.441406 C 333.320312 705.921875 333.242188 705.402344 333.191406 704.882812 C 333.140625 704.359375 333.117188 703.832031 333.117188 703.308594 C 333.117188 702.78125 333.144531 702.257812 333.199219 701.734375 C 333.25 701.210938 333.328125 700.691406 333.429688 700.175781 C 333.535156 699.660156 333.664062 699.152344 333.816406 698.648438 C 333.96875 698.144531 334.148438 697.652344 334.347656 697.164062 C 334.550781 696.679688 334.773438 696.207031 335.023438 695.742188 C 335.273438 695.28125 335.542969 694.828125 335.835938 694.390625 C 336.128906 693.957031 336.441406 693.535156 336.773438 693.128906 C 337.109375 692.722656 337.460938 692.332031 337.835938 691.960938 C 338.207031 691.589844 338.597656 691.238281 339.003906 690.90625 C 339.410156 690.574219 339.832031 690.261719 340.269531 689.96875 C 340.707031 689.675781 341.15625 689.40625 341.621094 689.160156 C 342.085938 688.914062 342.558594 688.6875 343.046875 688.488281 C 343.53125 688.285156 344.027344 688.109375 344.53125 687.957031 C 345.03125 687.804688 345.542969 687.679688 346.058594 687.578125 C 346.574219 687.476562 347.09375 687.398438 347.617188 687.347656 C 348.140625 687.296875 348.664062 687.269531 349.191406 687.269531 C 349.714844 687.269531 350.238281 687.296875 350.761719 687.347656 C 351.285156 687.402344 351.804688 687.480469 352.320312 687.582031 C 352.835938 687.683594 353.347656 687.8125 353.847656 687.964844 C 354.351562 688.117188 354.847656 688.296875 355.332031 688.496094 C 355.816406 688.699219 356.292969 688.921875 356.757812 689.171875 C 357.21875 689.417969 357.667969 689.691406 358.105469 689.980469 C 358.542969 690.273438 358.964844 690.585938 359.371094 690.921875 C 359.777344 691.253906 360.167969 691.605469 360.539062 691.980469 C 360.910156 692.351562 361.261719 692.742188 361.597656 693.148438 C 361.929688 693.554688 362.242188 693.976562 362.535156 694.414062 C 362.824219 694.847656 363.097656 695.300781 363.34375 695.765625 C 363.589844 696.226562 363.816406 696.703125 364.015625 697.1875 C 364.21875 697.671875 364.394531 698.167969 364.546875 698.671875 C 364.699219 699.175781 364.828125 699.683594 364.929688 700.199219 C 365.03125 700.714844 365.109375 701.234375 365.160156 701.757812 C 365.210938 702.28125 365.238281 702.804688 365.238281 703.332031 C 365.238281 703.859375 365.210938 704.382812 365.15625 704.90625 C 365.105469 705.429688 365.027344 705.949219 364.921875 706.464844 C 364.820312 706.980469 364.691406 707.492188 364.535156 707.996094 C 364.382812 708.5 364.203125 708.992188 364.003906 709.480469 C 363.800781 709.964844 363.574219 710.441406 363.324219 710.90625 C 363.078125 711.367188 362.804688 711.820312 362.511719 712.257812 C 362.21875 712.695312 361.90625 713.117188 361.570312 713.523438 C 361.238281 713.929688 360.882812 714.316406 360.511719 714.691406 C 360.136719 715.0625 359.75 715.414062 359.339844 715.746094 C 358.933594 716.082031 358.511719 716.394531 358.074219 716.6875 C 357.636719 716.976562 357.183594 717.25 356.71875 717.496094 C 356.253906 717.742188 355.78125 717.96875 355.292969 718.167969 C 354.808594 718.371094 354.3125 718.546875 353.808594 718.699219 C 353.304688 718.851562 352.792969 718.980469 352.277344 719.082031 C 351.761719 719.1875 351.242188 719.261719 350.71875 719.3125 C 350.195312 719.367188 349.667969 719.390625 349.140625 719.390625 Z M 475.796875 672.144531 C 475.269531 672.144531 474.742188 672.121094 474.21875 672.070312 C 473.691406 672.019531 473.171875 671.941406 472.652344 671.839844 C 472.136719 671.738281 471.625 671.613281 471.121094 671.460938 C 470.613281 671.308594 470.117188 671.132812 469.628906 670.929688 C 469.144531 670.730469 468.667969 670.503906 468.199219 670.257812 C 467.734375 670.007812 467.28125 669.738281 466.84375 669.449219 C 466.40625 669.15625 465.980469 668.84375 465.574219 668.507812 C 465.164062 668.175781 464.773438 667.820312 464.398438 667.449219 C 464.027344 667.078125 463.671875 666.6875 463.335938 666.28125 C 463 665.875 462.6875 665.449219 462.390625 665.011719 C 462.097656 664.574219 461.828125 664.125 461.578125 663.660156 C 461.328125 663.195312 461.101562 662.71875 460.898438 662.230469 C 460.695312 661.746094 460.519531 661.25 460.363281 660.746094 C 460.210938 660.238281 460.082031 659.730469 459.976562 659.210938 C 459.875 658.695312 459.796875 658.171875 459.742188 657.648438 C 459.691406 657.125 459.664062 656.597656 459.664062 656.070312 C 459.664062 655.542969 459.6875 655.015625 459.738281 654.492188 C 459.789062 653.96875 459.867188 653.445312 459.96875 652.929688 C 460.070312 652.410156 460.199219 651.898438 460.351562 651.394531 C 460.503906 650.890625 460.679688 650.394531 460.882812 649.90625 C 461.082031 649.417969 461.308594 648.941406 461.554688 648.476562 C 461.804688 648.011719 462.074219 647.558594 462.367188 647.121094 C 462.660156 646.679688 462.972656 646.257812 463.304688 645.851562 C 463.640625 645.441406 463.992188 645.050781 464.367188 644.679688 C 464.738281 644.304688 465.128906 643.949219 465.535156 643.617188 C 465.941406 643.28125 466.367188 642.964844 466.804688 642.671875 C 467.242188 642.378906 467.695312 642.109375 468.160156 641.859375 C 468.625 641.609375 469.097656 641.382812 469.585938 641.183594 C 470.074219 640.980469 470.570312 640.800781 471.074219 640.648438 C 471.578125 640.496094 472.089844 640.367188 472.605469 640.261719 C 473.125 640.160156 473.644531 640.082031 474.167969 640.03125 C 474.695312 639.976562 475.21875 639.949219 475.746094 639.949219 C 476.273438 639.949219 476.800781 639.976562 477.328125 640.027344 C 477.851562 640.078125 478.371094 640.15625 478.890625 640.257812 C 479.40625 640.359375 479.917969 640.488281 480.421875 640.640625 C 480.929688 640.792969 481.425781 640.972656 481.910156 641.171875 C 482.398438 641.375 482.875 641.597656 483.339844 641.847656 C 483.804688 642.097656 484.257812 642.367188 484.695312 642.660156 C 485.136719 642.953125 485.558594 643.265625 485.964844 643.601562 C 486.375 643.933594 486.765625 644.289062 487.136719 644.660156 C 487.511719 645.035156 487.863281 645.425781 488.199219 645.832031 C 488.535156 646.238281 488.847656 646.664062 489.140625 647.101562 C 489.433594 647.539062 489.703125 647.992188 489.953125 648.457031 C 490.203125 648.921875 490.425781 649.398438 490.628906 649.882812 C 490.832031 650.371094 491.007812 650.867188 491.164062 651.371094 C 491.316406 651.875 491.445312 652.386719 491.546875 652.90625 C 491.648438 653.421875 491.726562 653.945312 491.777344 654.46875 C 491.832031 654.992188 491.855469 655.519531 491.855469 656.046875 C 491.855469 657.101562 491.75 658.144531 491.542969 659.179688 C 491.335938 660.214844 491.027344 661.21875 490.625 662.191406 C 490.21875 663.167969 489.726562 664.09375 489.140625 664.96875 C 488.554688 665.847656 487.890625 666.660156 487.144531 667.40625 C 486.398438 668.152344 485.589844 668.820312 484.710938 669.40625 C 483.835938 669.996094 482.914062 670.492188 481.9375 670.898438 C 480.964844 671.304688 479.960938 671.613281 478.929688 671.820312 C 477.894531 672.03125 476.851562 672.136719 475.796875 672.144531 Z M 699.203125 568.503906 C 699.730469 568.503906 700.253906 568.53125 700.777344 568.582031 C 701.300781 568.632812 701.820312 568.710938 702.339844 568.8125 C 702.855469 568.914062 703.363281 569.042969 703.867188 569.195312 C 704.371094 569.347656 704.863281 569.527344 705.351562 569.726562 C 705.835938 569.929688 706.3125 570.152344 706.777344 570.402344 C 707.238281 570.648438 707.691406 570.917969 708.128906 571.210938 C 708.566406 571.503906 708.988281 571.816406 709.394531 572.148438 C 709.800781 572.484375 710.1875 572.835938 710.5625 573.207031 C 710.933594 573.578125 711.285156 573.96875 711.621094 574.375 C 711.953125 574.78125 712.265625 575.203125 712.558594 575.640625 C 712.851562 576.078125 713.121094 576.53125 713.367188 576.992188 C 713.617188 577.457031 713.839844 577.933594 714.042969 578.417969 C 714.242188 578.902344 714.421875 579.398438 714.574219 579.902344 C 714.726562 580.40625 714.855469 580.914062 714.957031 581.429688 C 715.058594 581.945312 715.136719 582.464844 715.1875 582.992188 C 715.238281 583.515625 715.265625 584.039062 715.265625 584.5625 C 715.265625 585.089844 715.238281 585.613281 715.1875 586.136719 C 715.136719 586.660156 715.058594 587.183594 714.957031 587.699219 C 714.855469 588.214844 714.726562 588.722656 714.574219 589.226562 C 714.421875 589.730469 714.242188 590.222656 714.042969 590.710938 C 713.839844 591.195312 713.617188 591.671875 713.367188 592.136719 C 713.121094 592.597656 712.851562 593.050781 712.558594 593.488281 C 712.265625 593.925781 711.953125 594.347656 711.621094 594.753906 C 711.285156 595.160156 710.933594 595.546875 710.5625 595.921875 C 710.1875 596.292969 709.800781 596.644531 709.394531 596.980469 C 708.988281 597.3125 708.566406 597.625 708.128906 597.917969 C 707.691406 598.210938 707.238281 598.480469 706.777344 598.726562 C 706.3125 598.976562 705.835938 599.199219 705.351562 599.402344 C 704.863281 599.601562 704.371094 599.78125 703.867188 599.933594 C 703.363281 600.085938 702.855469 600.214844 702.339844 600.316406 C 701.820312 600.417969 701.300781 600.496094 700.777344 600.546875 C 700.253906 600.597656 699.730469 600.625 699.203125 600.625 C 698.679688 600.625 698.152344 600.597656 697.628906 600.546875 C 697.105469 600.496094 696.585938 600.417969 696.070312 600.316406 C 695.554688 600.214844 695.046875 600.085938 694.542969 599.933594 C 694.039062 599.78125 693.542969 599.601562 693.058594 599.402344 C 692.574219 599.199219 692.097656 598.976562 691.632812 598.726562 C 691.171875 598.480469 690.71875 598.210938 690.28125 597.917969 C 689.84375 597.625 689.421875 597.3125 689.015625 596.980469 C 688.609375 596.644531 688.21875 596.292969 687.847656 595.921875 C 687.476562 595.546875 687.125 595.160156 686.789062 594.753906 C 686.457031 594.347656 686.144531 593.925781 685.851562 593.488281 C 685.558594 593.050781 685.289062 592.597656 685.039062 592.136719 C 684.792969 591.671875 684.570312 591.195312 684.367188 590.710938 C 684.164062 590.222656 683.988281 589.730469 683.835938 589.226562 C 683.683594 588.722656 683.554688 588.214844 683.453125 587.699219 C 683.351562 587.183594 683.273438 586.660156 683.222656 586.136719 C 683.171875 585.613281 683.144531 585.089844 683.144531 584.5625 C 683.144531 584.039062 683.171875 583.515625 683.226562 582.992188 C 683.277344 582.46875 683.355469 581.949219 683.460938 581.433594 C 683.5625 580.917969 683.691406 580.410156 683.84375 579.90625 C 683.996094 579.402344 684.175781 578.910156 684.375 578.425781 C 684.578125 577.9375 684.804688 577.464844 685.050781 577 C 685.300781 576.539062 685.570312 576.085938 685.863281 575.648438 C 686.15625 575.214844 686.46875 574.792969 686.800781 574.386719 C 687.136719 573.980469 687.488281 573.589844 687.859375 573.21875 C 688.230469 572.847656 688.621094 572.496094 689.027344 572.160156 C 689.433594 571.828125 689.855469 571.515625 690.289062 571.222656 C 690.726562 570.929688 691.179688 570.660156 691.640625 570.410156 C 692.105469 570.164062 692.578125 569.9375 693.066406 569.734375 C 693.550781 569.535156 694.042969 569.355469 694.546875 569.203125 C 695.050781 569.050781 695.558594 568.921875 696.074219 568.820312 C 696.589844 568.714844 697.109375 568.636719 697.632812 568.585938 C 698.15625 568.53125 698.679688 568.503906 699.203125 568.503906 Z M 98.667969 331.007812 C 98.667969 329.671875 98.699219 328.335938 98.765625 327.003906 C 98.828125 325.667969 98.921875 324.335938 99.046875 323.007812 C 99.175781 321.679688 99.332031 320.351562 99.523438 319.03125 C 99.710938 317.707031 99.929688 316.390625 100.179688 315.078125 C 100.433594 313.769531 100.714844 312.464844 101.027344 311.164062 C 101.339844 309.867188 101.679688 308.574219 102.054688 307.292969 C 102.425781 306.011719 102.832031 304.738281 103.261719 303.476562 C 103.695312 302.210938 104.160156 300.960938 104.652344 299.71875 C 105.144531 298.476562 105.664062 297.246094 106.214844 296.03125 C 106.765625 294.8125 107.34375 293.609375 107.949219 292.421875 C 108.554688 291.230469 109.191406 290.058594 109.851562 288.898438 C 110.515625 287.738281 111.203125 286.59375 111.917969 285.464844 C 112.636719 284.339844 113.378906 283.230469 114.144531 282.136719 C 114.914062 281.042969 115.707031 279.972656 116.527344 278.914062 C 117.34375 277.859375 118.1875 276.824219 119.054688 275.8125 C 119.921875 274.796875 120.816406 273.800781 121.730469 272.828125 C 122.644531 271.855469 123.582031 270.902344 124.539062 269.972656 C 125.5 269.046875 126.480469 268.140625 127.480469 267.257812 C 128.484375 266.375 129.503906 265.515625 130.546875 264.679688 C 131.589844 263.84375 132.652344 263.035156 133.730469 262.25 C 134.8125 261.464844 135.910156 260.707031 137.027344 259.972656 C 138.144531 259.242188 139.277344 258.535156 140.425781 257.855469 C 141.574219 257.175781 142.742188 256.523438 143.921875 255.898438 C 145.101562 255.273438 146.296875 254.675781 147.503906 254.109375 C 148.710938 253.539062 149.933594 253 151.167969 252.488281 C 152.402344 251.980469 153.648438 251.496094 154.902344 251.046875 C 156.160156 250.59375 157.425781 250.171875 158.703125 249.777344 C 159.980469 249.386719 161.265625 249.023438 162.558594 248.691406 C 163.851562 248.359375 165.152344 248.058594 166.460938 247.785156 C 167.765625 247.515625 169.082031 247.277344 170.398438 247.066406 C 171.71875 246.859375 173.042969 246.679688 174.367188 246.535156 C 175.695312 246.386719 177.027344 246.273438 178.359375 246.1875 L 191.875 245.148438 L 191.875 231.632812 C 191.875 228.164062 192.011719 224.699219 192.292969 221.238281 C 192.570312 217.777344 192.992188 214.335938 193.550781 210.910156 C 194.105469 207.484375 194.800781 204.085938 195.632812 200.714844 C 196.46875 197.347656 197.433594 194.015625 198.535156 190.722656 C 199.636719 187.433594 200.871094 184.191406 202.234375 181 C 203.597656 177.808594 205.085938 174.675781 206.703125 171.605469 C 208.320312 168.53125 210.058594 165.53125 211.917969 162.601562 C 213.777344 159.667969 215.753906 156.816406 217.84375 154.046875 C 219.933594 151.277344 222.128906 148.59375 224.4375 146 C 226.742188 143.40625 229.152344 140.910156 231.660156 138.511719 C 234.167969 136.109375 236.769531 133.816406 239.460938 131.628906 C 242.15625 129.4375 244.933594 127.363281 247.792969 125.398438 C 250.65625 123.433594 253.59375 121.585938 256.601562 119.859375 C 259.613281 118.132812 262.691406 116.53125 265.828125 115.050781 C 268.96875 113.574219 272.164062 112.222656 275.414062 111.003906 C 278.664062 109.78125 281.957031 108.695312 285.292969 107.742188 C 288.632812 106.785156 292.003906 105.96875 295.40625 105.285156 C 298.808594 104.605469 302.234375 104.0625 305.679688 103.65625 C 309.128906 103.25 312.585938 102.988281 316.054688 102.859375 C 319.523438 102.734375 322.992188 102.75 326.460938 102.90625 C 329.925781 103.058594 333.382812 103.355469 336.828125 103.789062 C 340.269531 104.222656 343.691406 104.792969 347.089844 105.503906 C 350.484375 106.214844 353.847656 107.0625 357.179688 108.042969 C 360.507812 109.027344 363.792969 110.140625 367.03125 111.390625 C 370.269531 112.636719 373.453125 114.015625 376.582031 115.519531 C 379.707031 117.023438 382.769531 118.652344 385.765625 120.40625 C 388.761719 122.15625 391.683594 124.027344 394.527344 126.015625 C 397.371094 128.003906 400.132812 130.105469 402.808594 132.316406 C 405.484375 134.527344 408.0625 136.84375 410.550781 139.265625 C 413.039062 141.683594 415.425781 144.203125 417.710938 146.816406 C 419.996094 149.429688 422.171875 152.128906 424.238281 154.917969 C 426.304688 157.707031 428.253906 160.574219 430.089844 163.519531 L 437.257812 174.957031 L 449.125 168.539062 C 454.339844 165.695312 459.828125 163.546875 465.589844 162.089844 C 471.351562 160.632812 477.203125 159.914062 483.144531 159.9375 C 486.089844 159.9375 489.023438 160.117188 491.945312 160.480469 C 494.871094 160.84375 497.757812 161.382812 500.617188 162.101562 C 503.472656 162.820312 506.273438 163.710938 509.019531 164.773438 C 511.765625 165.835938 514.4375 167.066406 517.03125 168.457031 C 519.628906 169.851562 522.128906 171.398438 524.53125 173.097656 C 526.9375 174.796875 529.226562 176.640625 531.40625 178.625 C 533.582031 180.605469 535.632812 182.714844 537.550781 184.949219 C 539.464844 187.1875 541.238281 189.53125 542.867188 191.984375 L 548.746094 200.839844 L 558.929688 197.792969 C 559.585938 197.59375 560.25 197.414062 560.917969 197.253906 C 561.582031 197.09375 562.253906 196.953125 562.929688 196.835938 C 563.605469 196.714844 564.285156 196.613281 564.96875 196.53125 C 565.648438 196.449219 566.332031 196.390625 567.019531 196.347656 C 567.703125 196.304688 568.390625 196.285156 569.078125 196.285156 C 569.761719 196.28125 570.449219 196.300781 571.132812 196.339844 C 571.820312 196.378906 572.503906 196.4375 573.1875 196.515625 C 573.867188 196.59375 574.546875 196.691406 575.222656 196.808594 C 575.898438 196.929688 576.570312 197.066406 577.238281 197.222656 C 577.910156 197.378906 578.570312 197.558594 579.230469 197.753906 C 579.886719 197.949219 580.539062 198.164062 581.183594 198.398438 C 581.832031 198.632812 582.46875 198.882812 583.097656 199.15625 C 583.730469 199.425781 584.351562 199.714844 584.964844 200.023438 C 585.582031 200.328125 586.183594 200.652344 586.78125 200.996094 C 587.375 201.339844 587.960938 201.699219 588.535156 202.074219 C 589.109375 202.453125 589.671875 202.84375 590.222656 203.253906 C 590.773438 203.664062 591.3125 204.089844 591.835938 204.53125 C 592.363281 204.96875 592.878906 205.425781 593.378906 205.898438 C 593.878906 206.367188 594.363281 206.851562 594.835938 207.351562 C 595.304688 207.851562 595.761719 208.363281 596.203125 208.886719 C 596.644531 209.414062 597.070312 209.953125 597.480469 210.5 C 597.894531 211.050781 598.285156 211.613281 598.664062 212.1875 C 599.042969 212.761719 599.402344 213.34375 599.746094 213.9375 C 600.089844 214.535156 600.417969 215.136719 600.722656 215.75 C 601.03125 216.363281 601.324219 216.984375 601.59375 217.617188 C 601.867188 218.246094 602.121094 218.882812 602.355469 219.527344 C 602.589844 220.175781 602.808594 220.824219 603.003906 221.484375 C 603.203125 222.140625 603.378906 222.804688 603.539062 223.472656 C 603.695312 224.140625 603.835938 224.8125 603.953125 225.488281 C 604.074219 226.164062 604.171875 226.84375 604.253906 227.523438 C 604.332031 228.207031 604.394531 228.890625 604.433594 229.574219 C 604.472656 230.261719 604.492188 230.945312 604.492188 231.632812 L 604.492188 245.972656 L 630.304688 245.972656 C 631.695312 245.972656 633.085938 246.007812 634.476562 246.074219 C 635.867188 246.144531 637.253906 246.246094 638.636719 246.382812 C 640.023438 246.519531 641.402344 246.6875 642.78125 246.894531 C 644.15625 247.097656 645.527344 247.335938 646.894531 247.605469 C 648.257812 247.878906 649.613281 248.183594 650.964844 248.523438 C 652.316406 248.859375 653.65625 249.230469 654.988281 249.632812 C 656.320312 250.039062 657.640625 250.476562 658.949219 250.945312 C 660.261719 251.414062 661.558594 251.914062 662.84375 252.445312 C 664.128906 252.980469 665.402344 253.542969 666.660156 254.136719 C 667.917969 254.730469 669.160156 255.359375 670.386719 256.015625 C 671.613281 256.667969 672.824219 257.355469 674.019531 258.070312 C 675.214844 258.785156 676.386719 259.53125 677.546875 260.304688 C 678.703125 261.078125 679.839844 261.878906 680.957031 262.707031 C 682.074219 263.535156 683.171875 264.390625 684.25 265.273438 C 685.324219 266.15625 686.378906 267.066406 687.410156 268 C 688.441406 268.9375 689.445312 269.894531 690.429688 270.878906 C 691.414062 271.863281 692.375 272.871094 693.308594 273.902344 C 694.242188 274.933594 695.152344 275.984375 696.035156 277.0625 C 696.917969 278.136719 697.773438 279.234375 698.601562 280.351562 C 699.433594 281.46875 700.234375 282.609375 701.007812 283.765625 C 701.777344 284.921875 702.523438 286.097656 703.238281 287.289062 C 703.953125 288.484375 704.640625 289.695312 705.296875 290.921875 C 705.953125 292.148438 706.578125 293.390625 707.171875 294.648438 C 707.769531 295.90625 708.332031 297.179688 708.863281 298.464844 C 709.394531 299.75 709.898438 301.050781 710.367188 302.359375 C 710.835938 303.667969 711.269531 304.992188 711.675781 306.324219 C 712.078125 307.65625 712.449219 308.996094 712.789062 310.34375 C 713.125 311.695312 713.429688 313.050781 713.703125 314.417969 C 713.972656 315.78125 714.210938 317.152344 714.417969 318.53125 C 714.621094 319.90625 714.789062 321.285156 714.925781 322.671875 C 715.0625 324.058594 715.167969 325.445312 715.234375 326.835938 C 715.300781 328.222656 715.335938 329.613281 715.335938 331.007812 C 715.335938 332.398438 715.300781 333.789062 715.234375 335.179688 C 715.167969 336.570312 715.0625 337.957031 714.925781 339.339844 C 714.789062 340.726562 714.621094 342.105469 714.417969 343.484375 C 714.210938 344.859375 713.972656 346.230469 713.703125 347.59375 C 713.429688 348.960938 713.125 350.316406 712.789062 351.667969 C 712.449219 353.019531 712.078125 354.359375 711.675781 355.691406 C 711.269531 357.023438 710.835938 358.34375 710.367188 359.652344 C 709.898438 360.964844 709.398438 362.261719 708.863281 363.546875 C 708.332031 364.832031 707.769531 366.105469 707.171875 367.363281 C 706.578125 368.621094 705.953125 369.863281 705.296875 371.089844 C 704.640625 372.316406 703.953125 373.527344 703.238281 374.722656 C 702.523438 375.914062 701.777344 377.089844 701.007812 378.25 C 700.234375 379.40625 699.433594 380.542969 698.601562 381.660156 C 697.773438 382.777344 696.917969 383.875 696.035156 384.949219 C 695.152344 386.027344 694.242188 387.078125 693.308594 388.109375 C 692.375 389.140625 691.414062 390.148438 690.429688 391.132812 C 689.445312 392.117188 688.441406 393.078125 687.410156 394.011719 C 686.378906 394.945312 685.324219 395.855469 684.25 396.738281 C 683.171875 397.621094 682.074219 398.476562 680.957031 399.304688 C 679.839844 400.132812 678.703125 400.9375 677.546875 401.707031 C 676.386719 402.480469 675.214844 403.226562 674.019531 403.941406 C 672.824219 404.65625 671.613281 405.34375 670.386719 406 C 669.160156 406.65625 667.917969 407.28125 666.660156 407.875 C 665.402344 408.46875 664.128906 409.035156 662.84375 409.566406 C 661.558594 410.097656 660.261719 410.601562 658.949219 411.070312 C 657.640625 411.539062 656.320312 411.972656 654.988281 412.378906 C 653.65625 412.78125 652.316406 413.152344 650.964844 413.492188 C 649.613281 413.828125 648.257812 414.132812 646.894531 414.40625 C 645.527344 414.675781 644.15625 414.914062 642.78125 415.121094 C 641.402344 415.324219 640.023438 415.492188 638.636719 415.628906 C 637.253906 415.765625 635.867188 415.867188 634.476562 415.9375 C 633.085938 416.003906 631.695312 416.039062 630.304688 416.039062 L 183.699219 416.039062 C 182.308594 416.039062 180.917969 416.003906 179.53125 415.933594 C 178.140625 415.863281 176.753906 415.757812 175.367188 415.621094 C 173.984375 415.484375 172.605469 415.3125 171.230469 415.105469 C 169.851562 414.898438 168.484375 414.660156 167.117188 414.386719 C 165.753906 414.117188 164.398438 413.808594 163.046875 413.46875 C 161.699219 413.132812 160.359375 412.757812 159.027344 412.355469 C 157.699219 411.949219 156.378906 411.511719 155.066406 411.042969 C 153.757812 410.574219 152.460938 410.070312 151.175781 409.539062 C 149.890625 409.003906 148.621094 408.441406 147.363281 407.84375 C 146.105469 407.25 144.863281 406.625 143.636719 405.96875 C 142.410156 405.3125 141.199219 404.625 140.007812 403.910156 C 138.816406 403.195312 137.640625 402.449219 136.484375 401.675781 C 135.328125 400.902344 134.191406 400.101562 133.074219 399.273438 C 131.957031 398.445312 130.859375 397.585938 129.785156 396.703125 C 128.710938 395.824219 127.65625 394.914062 126.625 393.980469 C 125.59375 393.046875 124.589844 392.085938 123.605469 391.101562 C 122.621094 390.117188 121.660156 389.113281 120.726562 388.082031 C 119.792969 387.050781 118.882812 385.996094 118 384.921875 C 117.117188 383.847656 116.261719 382.75 115.433594 381.632812 C 114.605469 380.515625 113.804688 379.378906 113.03125 378.222656 C 112.257812 377.066406 111.511719 375.890625 110.796875 374.699219 C 110.082031 373.507812 109.394531 372.296875 108.738281 371.070312 C 108.082031 369.84375 107.457031 368.601562 106.863281 367.34375 C 106.265625 366.085938 105.703125 364.816406 105.167969 363.53125 C 104.636719 362.246094 104.132812 360.949219 103.664062 359.640625 C 103.195312 358.328125 102.757812 357.007812 102.351562 355.679688 C 101.949219 354.347656 101.574219 353.007812 101.238281 351.65625 C 100.898438 350.308594 100.589844 348.953125 100.320312 347.589844 C 100.046875 346.222656 99.808594 344.855469 99.601562 343.476562 C 99.394531 342.101562 99.222656 340.722656 99.085938 339.335938 C 98.949219 337.953125 98.84375 336.566406 98.773438 335.175781 C 98.703125 333.789062 98.667969 332.398438 98.667969 331.007812 Z M 98.667969 331.007812 " clip-rule="nonzero"/></clipPath></defs><g clip-path="url(#0203fcda5d)"><g clip-path="url(#c7a976de23)"><path fill="#248675" d="M 70.054688 74.039062 L 70.054688 748.148438 L 741.425781 748.148438 L 741.425781 74.039062 Z M 70.054688 74.039062 " fill-opacity="1" fill-rule="nonzero"/></g></g></svg>